<?xml version="1.0" encoding="UTF-8"?>
<svg version="1.1" xmlns="http://www.w3.org/2000/svg" width="2048" height="2048">
<path d="M0 0 C2.70660961 2.50608625 5.4447193 4.95955081 8.24682617 7.3581543 C12.26883843 10.83777901 15.95995026 14.61967367 19.69604492 18.40112305 C21.7192489 20.3982632 23.76842853 22.27056114 25.93432617 24.1081543 C33.95434004 30.98710928 41.42186543 38.65081283 48.25073242 46.70581055 C50.76567607 49.51477684 53.44037044 52.14652498 56.12182617 54.7956543 C59.9838081 58.61574154 63.70160729 62.47572625 67.22338867 66.6159668 C69.241784 68.93338365 71.32545601 71.1778799 73.4230957 73.42333984 C78.47319605 78.82990864 83.2764555 84.34383884 87.91088867 90.1159668 C90.23117568 92.92818744 92.65253751 95.61362692 95.12182617 98.2956543 C99.18166262 102.71205574 103.01506438 107.25728951 106.78198242 111.92456055 C108.85946078 114.47372014 110.9722999 116.98370865 113.10839844 119.48339844 C118.84940832 126.20160149 124.34667974 133.0832406 129.76879883 140.06030273 C131.0709003 141.73033833 132.38143011 143.3932703 133.69604492 145.0534668 C150.65267288 166.47841694 167.00777777 188.36629318 182.68041992 210.74682617 C184.07828146 212.73375944 185.48820228 214.71143419 186.90307617 216.6862793 C220.08410235 263.09949652 250.02817742 312.07238359 276.12182617 362.7956543 C276.4726123 362.10342773 276.82339844 361.41120117 277.18481445 360.69799805 C285.09552864 345.13795382 293.34295002 329.88346992 302.28588867 314.88500977 C304.20439068 311.65672195 306.10225208 308.41694295 307.99682617 305.17456055 C320.64707126 283.57911762 334.0855922 262.51492888 348.12182617 241.7956543 C348.90420654 240.64057373 348.90420654 240.64057373 349.70239258 239.4621582 C357.37953864 228.14810537 365.18319163 216.9276686 373.12182617 205.7956543 C373.87882812 204.73145264 373.87882812 204.73145264 374.65112305 203.64575195 C382.31804443 192.88257386 390.23169614 182.32661559 398.27026367 171.83862305 C401.16148768 168.06377138 404.01709612 164.26494942 406.85107422 160.44702148 C412.91273431 152.28362055 419.25534405 144.38070107 425.70874023 136.5246582 C427.57802819 134.23746102 429.41345219 131.92419205 431.24682617 129.6081543 C434.74168756 125.22302296 438.3559781 120.94690028 441.98999023 116.67724609 C444.86832038 113.29158794 447.69999498 109.87435593 450.49682617 106.4206543 C458.89308404 96.12024509 467.69369789 86.17822979 476.71166992 76.4206543 C478.69593484 74.25951001 480.64072677 72.07725722 482.55932617 69.8581543 C490.01818411 61.27511442 497.81238341 53.03393323 505.90307617 45.0456543 C507.83878886 43.08267805 509.64993206 41.08244149 511.43432617 38.9831543 C518.35241123 30.91751959 526.06645584 23.40473692 534.16479492 16.53393555 C536.58635606 14.38304791 538.84557413 12.09953914 541.12182617 9.7956543 C544.65496016 6.22481918 548.25555712 2.83014204 552.07104492 -0.43481445 C554.397492 -2.44220593 556.66375303 -4.50901208 558.93432617 -6.5793457 C563.19927926 -10.42362815 567.57043467 -14.09961476 572.03588867 -17.70825195 C574.27122434 -19.51632726 576.49370822 -21.33547333 578.70776367 -23.16918945 C600.59974134 -41.24105317 623.75561729 -57.07400581 648.60180664 -70.81079102 C650.22393613 -71.70781825 651.84302092 -72.61038513 653.45825195 -73.51977539 C691.46710387 -94.87564511 741.5064527 -113.69192895 785.38574219 -101.62963867 C797.91581716 -97.88151709 807.87080558 -91.43922141 817.12182617 -82.2043457 C818.05961914 -81.28395508 818.05961914 -81.28395508 819.01635742 -80.3449707 C840.84748574 -57.2818374 844.56939985 -21.40632902 844.55932617 8.7331543 C844.56006134 9.71627594 844.56079651 10.69939758 844.56155396 11.71231079 C844.50166038 43.29732795 841.79401677 74.80367847 839.31997681 106.27184296 C839.12108303 108.80511957 838.92342356 111.33848985 838.72607422 113.87188721 C822.16306041 326.2595739 822.16306041 326.2595739 744.93920898 453.68969727 C734.7161828 462.16027188 723.6086919 469.18273509 712.12182617 475.7956543 C711.51226074 476.1546582 710.90269531 476.51366211 710.2746582 476.88354492 C666.78033754 502.3781145 613.18474328 511.09474917 563.43432617 510.9206543 C562.69901672 510.91976807 561.96370728 510.91888184 561.20611572 510.91796875 C549.48833247 510.90143841 537.81490269 510.60009199 526.12182617 509.7956543 C526.83910889 509.96581055 527.5563916 510.1359668 528.29541016 510.3112793 C545.5023721 514.42399615 562.36864759 519.08656411 579.12182617 524.7956543 C580.50845459 525.26092529 580.50845459 525.26092529 581.9230957 525.7355957 C615.1232284 536.9485714 646.47820377 552.8813701 673.12182617 575.7956543 C674.08733398 576.62581055 675.0528418 577.4559668 676.04760742 578.3112793 C699.50601856 598.90946742 715.52152577 625.74422464 720.12182617 656.7956543 C721.09580944 673.44606619 720.62358685 689.69844944 716.12182617 705.7956543 C715.92347168 706.526875 715.72511719 707.2580957 715.52075195 708.01147461 C710.26930352 726.81976486 701.32334307 744.84375589 690.12182617 760.7956543 C689.32323587 761.96203815 688.52506942 763.1287123 687.72729492 764.2956543 C682.01277348 772.55839043 675.7553386 780.25745995 669.12182617 787.7956543 C667.90946289 789.17624023 667.90946289 789.17624023 666.67260742 790.5847168 C662.77755812 794.96251415 658.78406639 799.1842649 654.59838867 803.28393555 C652.9692319 804.89438271 652.9692319 804.89438271 651.18432617 807.2956543 C648.84335487 810.13319527 646.24413688 812.33729703 643.44995117 814.7175293 C640.78453447 817.09672676 638.30687879 819.61601476 635.80932617 822.1706543 C631.44078308 826.61091185 626.85140265 830.62149191 621.97729492 834.4987793 C619.48115036 836.50662198 617.05425284 838.57482564 614.63867188 840.67822266 C600.27993671 853.11032586 584.59991375 863.40658434 568.12182617 872.7956543 C567.39640625 873.21331055 566.67098633 873.6309668 565.92358398 874.0612793 C532.8638923 892.94377357 492.99147756 902.66157267 455.45385742 893.0144043 C436.08687405 887.68859265 418.95756078 879.17306424 403.12182617 866.7956543 C402.5970166 866.38653809 402.07220703 865.97742187 401.53149414 865.5559082 C387.70894939 854.63115355 374.72579961 841.86177975 364.12182617 827.7956543 C363.62150879 827.14467773 363.12119141 826.49370117 362.60571289 825.82299805 C348.13564463 806.96256515 336.14928632 786.82729226 325.12182617 765.7956543 C324.43008301 764.48008545 324.43008301 764.48008545 323.72436523 763.13793945 C304.32558812 725.98563282 290.78513128 686.30780613 277.12182617 646.7956543 C276.46182617 646.7956543 275.80182617 646.7956543 275.12182617 646.7956543 C274.73551025 647.92543701 274.34919434 649.05521973 273.95117188 650.21923828 C255.07335123 705.32471602 234.97036846 761.82624774 201.12182617 809.7956543 C200.34936017 810.91652029 199.57724521 812.03762827 198.80541992 813.15893555 C193.0373315 821.46133146 186.75790461 829.17606969 180.12182617 836.7956543 C179.55334961 837.4762793 178.98487305 838.1569043 178.39916992 838.8581543 C156.15503775 865.25528301 127.78013715 885.3013595 94.12182617 893.7956543 C93.20401367 894.03155273 92.28620117 894.26745117 91.34057617 894.51049805 C47.96320784 903.91350352 4.28540201 886.38785413 -31.77612305 863.52539062 C-40.16935841 858.08036301 -48.0657929 852.0360191 -55.87817383 845.7956543 C-56.6900415 845.15152588 -56.6900415 845.15152588 -57.51831055 844.49438477 C-63.38012882 839.83256416 -69.01256454 834.954513 -74.54614258 829.90893555 C-76.62852119 828.02188893 -78.74320447 826.18507197 -80.87817383 824.3581543 C-84.95511178 820.81874366 -88.71650864 816.99219289 -92.48364258 813.12768555 C-94.83842276 810.75715486 -94.83842276 810.75715486 -97.47192383 808.72924805 C-99.67762887 806.9568065 -101.38672654 805.21218156 -103.19067383 803.0456543 C-105.60173501 800.21799507 -108.08366718 797.56774622 -110.75317383 794.9831543 C-115.54330239 790.24829645 -119.70771212 785.07638868 -123.87817383 779.7956543 C-124.68383789 778.78374023 -125.48950195 777.77182617 -126.31958008 776.72924805 C-143.82785593 754.53328364 -157.41359353 730.19624974 -164.87817383 702.7956543 C-165.08152344 702.05508789 -165.28487305 701.31452148 -165.49438477 700.55151367 C-173.14754329 671.03419402 -167.52715159 638.56838815 -152.41992188 612.43896484 C-121.53486077 561.1835935 -62.30751296 534.56066438 -7.12817383 518.3581543 C-6.43722626 518.15473419 -5.74627869 517.95131409 -5.03439331 517.74172974 C5.26964142 514.72793604 15.65372894 512.17233135 26.12182617 509.7956543 C24.93613037 509.87259521 23.75043457 509.94953613 22.52880859 510.02880859 C-49.73663165 514.60302987 -128.68746626 504.45228719 -186.87817383 457.7956543 C-187.69157227 457.18463867 -188.5049707 456.57362305 -189.34301758 455.9440918 C-218.59521368 433.31758572 -239.26895606 402.78643236 -253.06567383 368.7956543 C-253.374646 368.03784668 -253.68361816 367.28003906 -254.00195312 366.49926758 C-259.00592748 353.82253255 -262.60741026 341.06847695 -264.75317383 327.6081543 C-264.87445648 326.86115265 -264.99573914 326.114151 -265.12069702 325.34451294 C-278.58815324 241.61076212 -283.47451318 156.04678642 -289.56567383 71.5378418 C-289.62647629 70.69657557 -289.68727875 69.85530933 -289.74992371 68.98855019 C-292.01856279 37.50098974 -292.01856279 37.50098974 -292.08129883 24.5925293 C-292.0869989 23.62317444 -292.09269897 22.65381958 -292.09857178 21.65509033 C-292.10788742 19.63213141 -292.11450096 17.60915824 -292.1184082 15.58618164 C-292.12811722 12.56327819 -292.15927378 9.54105598 -292.19067383 6.51831055 C-292.28203457 -10.19849585 -291.04657765 -26.9267795 -286.19067383 -43.0168457 C-285.93721191 -43.8752002 -285.68375 -44.73355469 -285.42260742 -45.61791992 C-279.06846804 -66.14403903 -267.13457576 -84.39729106 -248.34692383 -95.4152832 C-239.7069629 -99.87147927 -230.4985505 -102.83225919 -220.87817383 -104.2043457 C-220.1124707 -104.32680664 -219.34676758 -104.44926758 -218.55786133 -104.57543945 C-138.66666054 -114.7183662 -55.16394786 -51.07839317 0 0 Z " fill="#1184FE" transform="translate(747.878173828125,667.204345703125)"/>
</svg>
