<?xml version="1.0" encoding="UTF-8"?>
<svg version="1.1" xmlns="http://www.w3.org/2000/svg" width="1200" height="1200">
<path d="M0 0 C2.32745559 0.00564272 4.65490389 0.00846159 6.98236465 0.0110817 C29.07785641 0.04724655 50.91345958 0.45194589 72.8550148 3.31805801 C74.24579523 3.48742938 75.63675244 3.6553542 77.02786636 3.82196426 C146.27810473 12.18458115 212.56249492 33.14085076 274.8550148 64.31805801 C276.4630397 65.11614883 276.4630397 65.11614883 278.10354996 65.9303627 C302.11556965 77.89351391 325.00022604 91.76073995 346.8550148 107.31805801 C347.61991226 107.859142 348.38480972 108.40022598 349.17288589 108.95770645 C363.36600309 119.01349902 377.0187857 129.58963208 390.21634293 140.91766739 C391.86433626 142.32602403 393.52241157 143.7216266 395.1831398 145.11493301 C408.55406022 156.37657824 421.09890062 168.48487072 433.4800148 180.81805801 C434.72355728 182.05459122 434.72355728 182.05459122 435.99222183 183.31610489 C440.819823 188.15646451 445.39971183 193.13541777 449.8550148 198.31805801 C451.30946997 199.92574174 452.76722375 201.53045516 454.2300148 203.13055801 C458.07307778 207.39415819 461.74824214 211.76358074 465.3550148 216.22821426 C467.17505052 218.47766467 469.00720362 220.71279593 470.8550148 222.93915176 C488.99410974 244.87255045 505.60491822 268.72854581 519.76810074 293.4357338 C520.97848412 295.53188291 522.21737088 297.6099193 523.4565773 299.68915176 C563.24886734 367.11098614 588.24509063 443.16307998 598.6050148 520.63055801 C598.70615585 521.37638138 598.80729691 522.12220474 598.91150284 522.89062881 C602.23766447 547.70936052 603.23466337 572.45302527 603.17307281 597.46304321 C603.16743009 599.7904988 603.16461122 602.1179471 603.16199112 604.44540787 C603.12582627 626.54089963 602.72112692 648.3765028 599.8550148 670.31805801 C599.68564343 671.70883844 599.51771861 673.09979566 599.35110855 674.49090958 C590.99055098 743.72409486 570.05812502 810.05235258 538.8550148 872.31805801 C538.03299576 873.96596329 538.03299576 873.96596329 537.19437027 875.64715958 C519.17151432 911.6061971 496.90087273 945.64922645 471.24319839 976.63006973 C469.41395966 978.85436742 467.6343746 981.11625739 465.8550148 983.38055801 C452.41272049 1000.1834259 437.52862758 1015.71052948 422.3550148 1030.94305801 C421.53057877 1031.7721669 420.70614273 1032.60127579 419.85672379 1033.45550919 C415.01644581 1038.28302763 410.03756687 1042.86283084 404.8550148 1047.31805801 C403.24733108 1048.77251318 401.64261766 1050.23026696 400.0425148 1051.69305801 C395.77891463 1055.53612099 391.40949207 1059.21128535 386.94485855 1062.81805801 C384.69540815 1064.63809374 382.46027688 1066.47024683 380.23392105 1068.31805801 C358.30052237 1086.45715296 334.44452701 1103.06796143 309.73733902 1117.23114395 C307.6411899 1118.44152733 305.56315352 1119.68041409 303.48392105 1120.91962051 C236.06208667 1160.71191055 160.00999283 1185.70813384 82.5425148 1196.06805801 C81.79669144 1196.16919907 81.05086807 1196.27034012 80.282444 1196.37454605 C55.4637123 1199.70070769 30.72004754 1200.69770658 5.7100296 1200.63611603 C3.38257401 1200.6304733 1.05512572 1200.62765443 -1.27233505 1200.62503433 C-23.36782681 1200.58886948 -45.20342998 1200.18417014 -67.1449852 1197.31805801 C-68.53576562 1197.14868664 -69.92672284 1196.98076183 -71.31783676 1196.81415176 C-140.56807512 1188.45153487 -206.85246532 1167.49526527 -269.1449852 1136.31805801 C-270.2170018 1135.78599747 -271.2890184 1135.25393692 -272.39352036 1134.70575333 C-296.40554005 1122.74260212 -319.29019644 1108.87537608 -341.1449852 1093.31805801 C-341.90988266 1092.77697403 -342.67478012 1092.23589005 -343.46285629 1091.67840958 C-357.65597349 1081.62261701 -371.3087561 1071.04648395 -384.50631332 1059.71844864 C-386.15430666 1058.310092 -387.81238196 1056.91448943 -389.4731102 1055.52118301 C-402.84403062 1044.25953779 -415.38887101 1032.15124531 -427.7699852 1019.81805801 C-428.59901352 1018.99370255 -429.42804184 1018.16934708 -430.28219223 1017.32001114 C-435.1097934 1012.47965152 -439.68968222 1007.50069825 -444.1449852 1002.31805801 C-445.59944037 1000.71037429 -447.05719415 999.10566087 -448.5199852 997.50555801 C-452.36304818 993.24195784 -456.03821254 988.87253528 -459.6449852 984.40790176 C-461.46502092 982.15845136 -463.29717402 979.9233201 -465.1449852 977.69696426 C-483.28408014 955.76356558 -499.89488862 931.90757022 -514.05807114 907.20038223 C-515.26845452 905.10423312 -516.50734128 903.02619673 -517.7465477 900.94696426 C-557.53883773 833.52512988 -582.53506103 757.47303605 -592.8949852 680.00555801 C-593.04669678 678.88682297 -593.04669678 678.88682297 -593.20147324 677.74548721 C-596.52763487 652.92675551 -597.52463377 628.18309076 -597.46304321 603.17307281 C-597.45740049 600.84561723 -597.45458162 598.51816893 -597.45196152 596.19070816 C-597.41579667 574.0952164 -597.01109732 552.25961323 -594.1449852 530.31805801 C-593.97561383 528.92727759 -593.80768901 527.53632037 -593.64107895 526.14520645 C-585.27846206 456.89496809 -564.32219245 390.6105779 -533.1449852 328.31805801 C-532.34689438 326.71003311 -532.34689438 326.71003311 -531.53268051 325.06952286 C-519.56952931 301.05750316 -505.70230327 278.17284677 -490.1449852 256.31805801 C-489.60390121 255.55316055 -489.06281723 254.78826309 -488.50533676 254.00018692 C-478.45079296 239.80883229 -467.87608674 226.15733284 -456.54977036 212.96112442 C-455.12899338 211.29935364 -453.71995767 209.62821823 -452.31295395 207.95477676 C-441.21693737 194.80262333 -429.3497215 182.44243879 -417.2074852 170.25555801 C-416.3316478 169.37504776 -415.45581039 168.49453751 -414.55343246 167.58734512 C-409.57695662 162.6232049 -404.47808679 157.89413514 -399.1449852 153.31805801 C-397.53730147 151.86360284 -395.93258805 150.40584907 -394.3324852 148.94305801 C-390.06888502 145.09999503 -385.69946247 141.42483067 -381.23482895 137.81805801 C-378.98537855 135.99802229 -376.75024728 134.16586919 -374.52389145 132.31805801 C-352.59049276 114.17896307 -328.73449741 97.5681546 -304.02730942 83.40497208 C-301.9311603 82.1945887 -299.85312391 80.95570193 -297.77389145 79.71649551 C-230.35205707 39.92420548 -154.29996323 14.92798218 -76.8324852 4.56805801 C-75.71375015 4.41634644 -75.71375015 4.41634644 -74.5724144 4.26156998 C-49.75368269 0.93540834 -25.01001794 -0.06159056 0 0 Z " fill="#000000" transform="translate(597.1449851989746,-0.3180580139160156)"/>
<path d="M0 0 C44.88 0 89.76 0 136 0 C136.66 8.58 137.32 17.16 138 26 C138.33 28.31 138.66 30.62 139 33 C150.88 33.33 162.76 33.66 175 34 C175.226875 37.795 175.45375 41.59 175.6875 45.5 C178.3835759 83.2785542 191.26561378 119.30945602 215 149 C215.76957031 150.08667969 215.76957031 150.08667969 216.5546875 151.1953125 C221.99496501 158.38324392 230.13484699 162.00174179 238 166 C238.61407715 166.31855957 239.2281543 166.63711914 239.86083984 166.96533203 C265.98070851 180.40230599 292.79351104 183.97863907 322 187 C322 231.55 322 276.1 322 322 C298.48773443 322 298.48773443 322 288.6875 320.875 C287.5236377 320.74375732 286.35977539 320.61251465 285.16064453 320.47729492 C261.82608713 317.66790232 239.21079897 312.67315715 217 305 C216.09137207 304.68836914 215.18274414 304.37673828 214.24658203 304.05566406 C195.94455571 297.67947425 178.43765017 289.21030919 161.4375 279.9375 C160.80948486 279.59928223 160.18146973 279.26106445 159.53442383 278.91259766 C154.38320025 276.02444193 149.56407325 272.67779793 144.71118164 269.32250977 C143.96890572 268.8106739 143.22662979 268.29883804 142.46186066 267.771492 C140.64051921 266.51536761 138.81992443 265.25817614 137 264 C136.99864347 264.58124225 136.99728694 265.16248449 136.99588931 265.76134014 C136.9150143 300.30868983 136.82396913 334.85599769 136.71994839 369.4032855 C136.70743144 373.56329038 136.69499836 377.7232955 136.68261719 381.88330078 C136.68015119 382.71138685 136.6776852 383.53947292 136.67514448 384.39265251 C136.63555922 397.75243813 136.60274936 411.11223207 136.57250018 424.47204173 C136.54124499 438.20861308 136.50257706 451.94514958 136.45720994 465.68168163 C136.42950645 474.13899611 136.40739613 482.59628548 136.39273749 491.0536328 C136.38209053 496.87489682 136.36416088 502.69611183 136.34083296 508.51733869 C136.32763433 511.86203274 136.3184204 515.2066007 136.31578636 518.55132866 C136.28522116 551.50367654 133.20159674 582.54945132 123 614 C122.64881104 615.09054687 122.64881104 615.09054687 122.29052734 616.203125 C113.39548926 643.2004624 98.82282503 668.00818845 81 690 C80.50387207 690.61327148 80.00774414 691.22654297 79.49658203 691.85839844 C68.62486173 705.17471205 56.61141151 717.47672665 43 728 C42.06671875 728.76183594 41.1334375 729.52367187 40.171875 730.30859375 C25.77150736 741.84734987 9.73267287 751.27093469 -7 759 C-7.62616211 759.29567871 -8.25232422 759.59135742 -8.89746094 759.89599609 C-66.67580084 787.06927064 -135.03809236 789.34769487 -195 768 C-195.77843262 767.72349609 -196.55686523 767.44699219 -197.35888672 767.16210938 C-214.69248505 760.87961065 -231.89187581 752.74695271 -247.10546875 742.29101562 C-248.58118705 741.28539728 -250.10507198 740.35034173 -251.64453125 739.4453125 C-254.83961622 737.4848126 -257.75278105 735.19794974 -260.6875 732.875 C-261.30254395 732.38999023 -261.91758789 731.90498047 -262.55126953 731.40527344 C-267.10905771 727.7794633 -271.48277411 723.99097129 -275.76953125 720.046875 C-277.83296274 718.15328813 -279.93574581 716.32173836 -282.0625 714.5 C-290.2391261 707.34134743 -297.25318632 699.50298594 -304 691 C-304.86204125 689.95080288 -305.72536164 688.90265565 -306.58984375 687.85546875 C-346.50796498 639.00239681 -364.88308127 573.58024123 -359 511 C-357.15775358 493.95922063 -353.95485668 477.40675035 -349 461 C-348.62367432 459.74727295 -348.62367432 459.74727295 -348.23974609 458.46923828 C-338.70698813 427.51689427 -322.1232587 398.48111498 -301 374 C-300.35417969 373.24332031 -299.70835937 372.48664063 -299.04296875 371.70703125 C-288.02215329 359.12686523 -276.19099004 347.12705218 -262.6796875 337.23095703 C-261.0029241 336.00214293 -259.34512847 334.75055492 -257.6875 333.49609375 C-224.0949424 308.42650945 -183.45337097 293.14805096 -142 288 C-141.31220459 287.90501221 -140.62440918 287.81002441 -139.91577148 287.7121582 C-131.7767478 286.72109839 -123.59328054 286.81392359 -115.40698242 286.81469727 C-112.83560399 286.81251957 -110.2646618 286.79433525 -107.69335938 286.77539062 C-106.0104181 286.77245362 -104.32747483 286.77047088 -102.64453125 286.76953125 C-101.90024368 286.76234573 -101.15595612 286.75516022 -100.38911438 286.74775696 C-92.69247988 286.77943974 -85.84331507 287.95422466 -78 289 C-78 299.56 -78 310.12 -78 321 C-71.15118907 320.92212814 -71.15118907 320.92212814 -64.30273438 320.81982422 C-55.55486505 320.77094463 -47.91914404 321.88510699 -39 323 C-39 368.54 -39 414.08 -39 461 C-50 459 -50 459 -53.21484375 458.3671875 C-81.89231517 453.1830248 -112.39138054 459.6846561 -136.36328125 476.27734375 C-160.75667144 493.91876538 -178.08527991 520.16907997 -183.17333984 550.05712891 C-186.75256524 574.76090968 -182.38829378 597.53802511 -172 620 C-171.70673828 620.66741211 -171.41347656 621.33482422 -171.11132812 622.02246094 C-167.29270746 630.49309639 -162.77450665 634.58664624 -154.33789062 637.8828125 C-152.23707576 638.63268938 -150.12675137 639.32750156 -148 640 C-147.0411792 640.31420898 -147.0411792 640.31420898 -146.06298828 640.63476562 C-115.91094185 650.29474815 -85.47799482 646.05441712 -57.5625 631.8125 C-32.1278042 617.72932715 -14.92174608 595.04381044 -5.625 567.75 C-5.38628174 567.05430908 -5.14756348 566.35861816 -4.90161133 565.6418457 C-0.56813639 552.19318443 -0.70748376 538.7610465 -0.7215271 524.79071045 C-0.71652007 522.52408596 -0.71064308 520.25746326 -0.70397437 517.99084306 C-0.68820975 511.78128519 -0.68474563 505.57177262 -0.68332577 499.36219716 C-0.68000588 493.347859 -0.66734658 487.33354507 -0.6549259 481.31922061 C-0.62985167 469.02250891 -0.61395675 456.72580152 -0.60334396 444.42906952 C-0.59281004 432.2586754 -0.5781652 420.08829757 -0.55806351 407.91791534 C-0.55681464 407.16040853 -0.55556577 406.40290172 -0.55427906 405.62244015 C-0.54791506 401.77524299 -0.54147794 397.92804596 -0.53501268 394.08084896 C-0.48938389 366.85094557 -0.45292174 339.62103688 -0.421875 312.39111328 C-0.39169772 285.94221216 -0.357353 259.4933218 -0.31738281 233.04443359 C-0.31615181 232.22876332 -0.31492081 231.41309305 -0.3136525 230.5727055 C-0.30128535 222.38120106 -0.28883365 214.18969676 -0.27632002 205.99819254 C-0.2508316 189.31204852 -0.22590737 172.62590368 -0.20132446 155.9397583 C-0.20019355 155.17260334 -0.19906264 154.40544838 -0.19789747 153.6150463 C-0.16327259 130.10703499 -0.13103842 106.59902125 -0.10116577 83.09100342 C-0.0994916 81.77429143 -0.09781744 80.45757943 -0.09609254 79.10096708 C-0.06271257 52.7339797 -0.03165707 26.36698949 0 0 Z " fill="#FEFEFE" transform="translate(599,192)"/>
<path d="M0 0 C5.61 0.66 11.22 1.32 17 2 C27.89 2.99 27.89 2.99 39 4 C39 48.55 39 93.1 39 139 C14.44131246 139 14.44131246 139 4.3125 137.8125 C2.55196289 137.6117688 2.55196289 137.6117688 0.75585938 137.40698242 C-49.82809644 131.32131213 -99.42361765 113.70592803 -141.25 84.33544922 C-142.14203125 83.70951874 -143.0340625 83.08358826 -143.953125 82.43869019 C-144.96632813 81.72653854 -144.96632813 81.72653854 -146 81 C-146.00135653 81.5883496 -146.00271306 82.17669919 -146.00411069 82.78287756 C-146.0849554 117.73927336 -146.17598858 152.69562841 -146.28005161 187.65196297 C-146.29256882 191.85960921 -146.30500185 196.0672557 -146.31738281 200.27490234 C-146.31984881 201.11248488 -146.3223148 201.95006742 -146.32485552 202.81303124 C-146.36445934 216.33259799 -146.39726111 229.85217297 -146.42749982 243.37176354 C-146.45873598 257.2687868 -146.4973962 271.16577547 -146.54279006 285.06275976 C-146.57051729 293.62142133 -146.59261767 302.18005793 -146.60726251 310.73875205 C-146.61789529 316.62681349 -146.63581092 322.51482626 -146.65916704 328.40285082 C-146.67238801 331.78780231 -146.68158484 335.17262815 -146.68421364 338.55761337 C-146.72606035 384.29906789 -154.29792832 427.30218421 -176 468 C-176.34111816 468.64888184 -176.68223633 469.29776367 -177.03369141 469.96630859 C-185.03381256 485.09834959 -194.81910564 499.04501539 -206 512 C-206.98613281 513.15242187 -206.98613281 513.15242187 -207.9921875 514.328125 C-219.22881951 527.13364525 -231.25599955 538.9260276 -245 549 C-245.56928223 549.42474609 -246.13856445 549.84949219 -246.72509766 550.28710938 C-255.46950273 556.80535212 -264.53752338 562.58465189 -274 568 C-275.12277344 568.65613281 -276.24554687 569.31226563 -277.40234375 569.98828125 C-302.74466058 584.21304627 -331.33013238 592.85098331 -360 597 C-360.79728516 597.11714355 -361.59457031 597.23428711 -362.41601562 597.35498047 C-394.711066 601.8717238 -427.50140169 598.91088263 -459 591 C-460.13308594 590.71817871 -460.13308594 590.71817871 -461.2890625 590.43066406 C-487.10976848 583.84638404 -513.58359154 571.86522283 -535 556 C-535.98484375 555.28457031 -536.9696875 554.56914063 -537.984375 553.83203125 C-547.40885944 546.88326797 -556.43233038 539.53588925 -565.0625 531.625 C-565.90349243 530.85675903 -565.90349243 530.85675903 -566.76147461 530.07299805 C-569.19009233 527.82006916 -571.1531789 525.77023164 -573 523 C-569.28091839 524.31806532 -566.04300459 526.11064959 -562.6862793 528.17260742 C-545.4948292 538.72204517 -527.27052158 547.063141 -508 553 C-507.14647949 553.26651367 -506.29295898 553.53302734 -505.41357422 553.80761719 C-447.31512203 571.64929782 -383.91675058 566.52293334 -329 541 C-328.28263672 540.66887207 -327.56527344 540.33774414 -326.82617188 539.99658203 C-311.21354376 532.71192214 -296.47058503 523.74554559 -283 513 C-282.09121094 512.28328125 -281.18242188 511.5665625 -280.24609375 510.828125 C-265.84867752 499.27742407 -252.35969458 486.57365695 -241 472 C-240.54898926 471.43071777 -240.09797852 470.86143555 -239.63330078 470.27490234 C-199.81307416 419.85572614 -186.93388715 361.54380724 -186.79467773 298.59399414 C-186.78561423 295.83319241 -186.77511572 293.07239656 -186.76467896 290.31159973 C-186.74305169 284.39413696 -186.72485791 278.47667189 -186.70907402 272.55919075 C-186.68624878 264.0037709 -186.6581244 255.44837474 -186.62875474 246.89297514 C-186.58123273 233.0084946 -186.53792746 219.1240043 -186.49731445 205.23950195 C-186.45788079 191.76130414 -186.41643604 178.28311496 -186.37231445 164.80493164 C-186.36822804 163.55630478 -186.36822804 163.55630478 -186.36405908 162.28245313 C-186.35037831 158.10597258 -186.33665829 153.92949217 -186.32291877 149.75301182 C-186.20919614 115.1686925 -186.10233393 80.58435483 -186 46 C-185.24708679 46.47943558 -184.49417358 46.95887115 -183.71844482 47.45283508 C-182.72951233 48.08239609 -181.74057983 48.71195709 -180.72167969 49.3605957 C-179.74189148 49.98440628 -178.76210327 50.60821686 -177.75262451 51.25093079 C-122.28220528 86.49787499 -65.45188914 100.90925693 0 105 C0 70.35 0 35.7 0 0 Z " fill="#FE2C55" transform="translate(921,409)"/>
<path d="M0 0 C44.88 0 89.76 0 136 0 C136.66 8.58 137.32 17.16 138 26 C138.33 28.64 138.66 31.28 139 34 C106.33 34 73.66 34 40 34 C40.00241699 45.13556641 40.00241699 45.13556641 40.00488281 56.49609375 C40.00514747 61.98030629 40.00524572 67.46451807 40.0045166 72.94873047 C40.00441788 73.69438947 40.00431916 74.44004848 40.00421745 75.20830321 C39.99617875 129.32670306 39.95142466 183.44512074 39.88336182 237.56347656 C39.88250431 238.24582215 39.8816468 238.92816773 39.8807633 239.63119045 C39.86219764 254.37286703 39.84271521 269.11454224 39.82207905 283.85621607 C39.81205877 291.01433264 39.8022201 298.17244945 39.79248047 305.33056641 C39.79150866 306.04236977 39.79053686 306.75417313 39.7895356 307.48754629 C39.75796769 330.67782344 39.73960208 353.86808872 39.72790753 377.05838369 C39.715744 401.04361485 39.69053192 425.0287978 39.64892386 449.01399681 C39.64305214 452.40189895 39.63732715 455.78980132 39.63169098 459.17770386 C39.63057752 459.84413988 39.62946406 460.51057591 39.62831686 461.19720697 C39.60979368 472.52318777 39.60726503 483.84911759 39.60857043 495.17511374 C39.60860022 505.22737655 39.59394089 515.27955174 39.56783572 525.33178037 C39.55323348 531.11876056 39.54495059 536.905561 39.55419731 542.69255638 C39.56253414 547.99958077 39.55219408 553.30624506 39.52766338 558.61321628 C39.52201987 560.52092233 39.52293211 562.42866298 39.53148755 564.33635819 C39.66470279 596.85144199 28.61546969 625.48129987 5.5625 648.8125 C0.09861638 654.2176467 -5.39893565 659.01185695 -12 663 C-12.9075 663.57878906 -13.815 664.15757812 -14.75 664.75390625 C-30.3599618 674.36482688 -48.59967007 680.29110957 -67 681 C-67.90363281 681.03996094 -68.80726563 681.07992187 -69.73828125 681.12109375 C-100.59025068 681.81577386 -129.2615482 669.5862841 -151.54296875 648.60546875 C-159.07595322 641.19537146 -159.07595322 641.19537146 -162 637 C-162 636.34 -162 635.68 -162 635 C-160.2365625 635.5878125 -160.2365625 635.5878125 -158.4375 636.1875 C-157.60605469 636.45949219 -156.77460938 636.73148438 -155.91796875 637.01171875 C-153.86606664 637.70667355 -151.82770979 638.44229264 -149.80078125 639.20703125 C-142.32509103 641.92920227 -135.07099584 643.68349173 -127.1875 644.8125 C-125.89924316 644.998125 -125.89924316 644.998125 -124.58496094 645.1875 C-96.53877133 648.8508517 -66.90184463 640.36136296 -44.4375 623.3125 C-25.77699896 608.66129922 -13.25640979 590.15464034 -5.625 567.75 C-5.38628174 567.05430908 -5.14756348 566.35861816 -4.90161133 565.6418457 C-0.56813639 552.19318443 -0.70748376 538.7610465 -0.7215271 524.79071045 C-0.71652007 522.52408596 -0.71064308 520.25746326 -0.70397437 517.99084306 C-0.68820975 511.78128519 -0.68474563 505.57177262 -0.68332577 499.36219716 C-0.68000588 493.347859 -0.66734658 487.33354507 -0.6549259 481.31922061 C-0.62985167 469.02250891 -0.61395675 456.72580152 -0.60334396 444.42906952 C-0.59281004 432.2586754 -0.5781652 420.08829757 -0.55806351 407.91791534 C-0.55681464 407.16040853 -0.55556577 406.40290172 -0.55427906 405.62244015 C-0.54791506 401.77524299 -0.54147794 397.92804596 -0.53501268 394.08084896 C-0.48938389 366.85094557 -0.45292174 339.62103688 -0.421875 312.39111328 C-0.39169772 285.94221216 -0.357353 259.4933218 -0.31738281 233.04443359 C-0.31615181 232.22876332 -0.31492081 231.41309305 -0.3136525 230.5727055 C-0.30128535 222.38120106 -0.28883365 214.18969676 -0.27632002 205.99819254 C-0.2508316 189.31204852 -0.22590737 172.62590368 -0.20132446 155.9397583 C-0.20019355 155.17260334 -0.19906264 154.40544838 -0.19789747 153.6150463 C-0.16327259 130.10703499 -0.13103842 106.59902125 -0.10116577 83.09100342 C-0.0994916 81.77429143 -0.09781744 80.45757943 -0.09609254 79.10096708 C-0.06271257 52.7339797 -0.03165707 26.36698949 0 0 Z " fill="#25F4EE" transform="translate(599,192)"/>
<path d="M0 0 C2.57137843 -0.0021777 5.14232062 -0.02036201 7.71362305 -0.03930664 C9.39656433 -0.04224364 11.07950759 -0.04422638 12.76245117 -0.04516602 C13.50673874 -0.05235153 14.25102631 -0.05953705 15.01786804 -0.06694031 C22.71450254 -0.03525753 29.56366735 1.13952739 37.40698242 2.18530273 C37.40698242 12.74530273 37.40698242 23.30530273 37.40698242 34.18530273 C32.80760742 34.57717773 28.20823242 34.96905273 23.46948242 35.37280273 C-35.12070233 40.82894417 -88.11444463 64.33166723 -130.59301758 105.18530273 C-131.3299585 105.88937256 -131.3299585 105.88937256 -132.08178711 106.60766602 C-138.8080409 113.06260873 -144.88107729 119.82262108 -150.59301758 127.18530273 C-151.05853027 127.77972168 -151.52404297 128.37414062 -152.00366211 128.98657227 C-159.29083869 138.32393463 -165.84973867 147.82623157 -171.59301758 158.18530273 C-172.28911133 159.42812012 -172.28911133 159.42812012 -172.99926758 160.69604492 C-191.37193778 193.76924356 -203.59054755 231.64046209 -203.79614258 269.75952148 C-203.80320221 270.63773056 -203.81026184 271.51593964 -203.8175354 272.42076111 C-204.09287544 299.4482633 -204.09287544 299.4482633 -200.59301758 326.18530273 C-200.38902344 327.18045898 -200.1850293 328.17561523 -199.97485352 329.20092773 C-190.54791115 373.76964507 -170.95321149 413.2198358 -140.59301758 447.18530273 C-144.33608403 447.18530273 -145.06020628 446.28806434 -147.90551758 443.93530273 C-149.23389648 442.83702148 -149.23389648 442.83702148 -150.58911133 441.71655273 C-151.58040039 440.88124023 -152.57168945 440.04592773 -153.59301758 439.18530273 C-154.13458496 438.73541992 -154.67615234 438.28553711 -155.23413086 437.82202148 C-167.5704222 427.57178112 -178.66599515 416.816583 -188.59301758 404.18530273 C-189.45061212 403.13956923 -190.31006168 402.09535487 -191.17114258 401.05249023 C-231.10596124 352.21284821 -249.475664 286.76091841 -243.59301758 224.18530273 C-241.75077116 207.14452336 -238.54787426 190.59205308 -233.59301758 174.18530273 C-233.21669189 172.93257568 -233.21669189 172.93257568 -232.83276367 171.65454102 C-223.30000571 140.702197 -206.71627627 111.66641771 -185.59301758 87.18530273 C-184.62428711 86.0502832 -184.62428711 86.0502832 -183.63598633 84.89233398 C-172.61517087 72.31216797 -160.78400762 60.31235492 -147.27270508 50.41625977 C-145.59594168 49.18744566 -143.93814605 47.93585765 -142.28051758 46.68139648 C-108.68795998 21.61181219 -68.04638854 6.3333537 -26.59301758 1.18530273 C-25.90522217 1.09031494 -25.21742676 0.99532715 -24.50878906 0.89746094 C-16.36976538 -0.09359888 -8.18629812 -0.00077368 0 0 Z " fill="#25F4EE" transform="translate(483.593017578125,478.814697265625)"/>
<path d="M0 0 C23 0 23 0 39 2 C39 47.54 39 93.08 39 140 C28 138 28 138 24.78515625 137.3671875 C-3.89231517 132.1830248 -34.39138054 138.6846561 -58.36328125 155.27734375 C-82.75667144 172.91876538 -100.08527991 199.16907997 -105.17333984 229.05712891 C-109.09665671 256.13582588 -104.38680858 285.5793509 -88.15234375 308.1015625 C-87.77207031 308.72804688 -87.39179688 309.35453125 -87 310 C-87.33 310.66 -87.66 311.32 -88 312 C-113.88029011 296.43177906 -131.65526608 275.23304637 -141.375 246.75 C-141.61379883 246.05422852 -141.85259766 245.35845703 -142.09863281 244.64160156 C-151.31220215 216.04086897 -146.09527358 185.5073169 -132.6875 159.3125 C-129.02635944 152.74658638 -124.7313191 146.83181268 -120 141 C-119.31292969 140.14664063 -118.62585938 139.29328125 -117.91796875 138.4140625 C-100.12458294 117.48455118 -72.27040027 103.45980225 -45 101 C-29.35531522 100.14417114 -15.05897206 101.69743656 0 106 C0 71.02 0 36.04 0 0 Z " fill="#FE2C55" transform="translate(521,513)"/>
<path d="M0 0 C11.88 0 23.76 0 36 0 C36.226875 3.795 36.45375 7.59 36.6875 11.5 C39.29062864 47.97613794 51.33707113 83.57885624 74.08984375 112.484375 C75.92697812 114.90383212 77.48940887 117.36712017 79 120 C51.89057771 110.70395035 27.70218496 73.51997464 15.234375 48.7890625 C8.33190853 34.42826722 0 16.21276398 0 0 Z " fill="#FE2C55" transform="translate(738,226)"/>
<path d="M0 0 C3.27760129 1.25671364 6.3444692 2.65527725 9.4140625 4.35546875 C38.54650424 20.2325791 67.16781368 26.01525579 100 29 C100 38.9 100 48.8 100 59 C61.13785293 49.57887344 27.1809284 30.56619354 0 1 C0 0.67 0 0.34 0 0 Z " fill="#25F4EE" transform="translate(821,350)"/>
</svg>
